# xmcd CD database file
#
# Track frame offsets:
#	180
#	13294
#	26646
#	39882
#	52839
#	64528
#	78037
#	92494
#	105436
#	118401
#	132049
#	144897
#	157700
#	170792
#
# Disc length: 2478 seconds
#
# Revision: 0
# Processed by: cddbd v1.4PL0 Copyright (c) Steve Scherf et al.
# Submitted via: CDex 1.50Beta7
#
DISCID=a009ac0e
DTITLE=Various Artist - Country Blues (Vol. 1)
DYEAR=2001
DGENRE=Blues
TTITLE0=(A-1) Matchbox Blues - Blind Lemon Jefferson
TTITLE1=(A-2) Careless Love - Lonnie Johnson
TTITLE2=(A-3) Walk Right In - Canon's Jug Stompers
TTITLE3=(A-4) Low Down Rounder's Blues - Peg Leg Howell
TTITLE4=(A-5) Statesboro Blues - Blind Willie McTell
TTITLE5=(A-6) Stealin', Stealin' - Memphis Jug Band
TTITLE6=(A-7) You Gonna Need Somebody on Your Bond - Blind Willie Johnson
TTITLE7=(B-1) Alabama Woman Blues - Leroy Carr
TTITLE8=(B-2) Special Agent - Sleepy John Estes
TTITLE9=(B-3) Key to the Highway - Big Bill
TTITLE10=(B-4) Fixin' to Die - Bukka White
TTITLE11=(B-5) I'm a Guitar King - Tommy McClennan
TTITLE12=(B-6) Preachin' Blues - Robert Johnson
TTITLE13=(B-7) I Been Treated Wrong - Washboard Sam
EXTD=YEAR: 2001
EXTT0=
EXTT1=
EXTT2=
EXTT3=
EXTT4=
EXTT5=
EXTT6=
EXTT7=
EXTT8=
EXTT9=
EXTT10=
EXTT11=
EXTT12=
EXTT13=
PLAYORDER=
